<?xml version="1.0" encoding="utf-8"?>
<!-- Generator: Adobe Illustrator 23.0.6, SVG Export Plug-In . SVG Version: 6.00 Build 0)  -->
<svg version="1.1" id="Capa_1" xmlns="http://www.w3.org/2000/svg" xmlns:xlink="http://www.w3.org/1999/xlink" x="0px" y="0px"
	 viewBox="0 0 512 512" style="enable-background:new 0 0 512 512;" xml:space="preserve">
<style type="text/css">
	.st0{fill:#CB4E56;}
</style>
<g id="XMLID_1727_">
	<g id="XMLID_1101_">
		<path id="XMLID_1121_" class="st0" d="M93.3,102.5c-2.4-3.3-6.7-4.8-10.7-3.8s-6.9,4.5-7.4,8.6L68.9,167c-0.6,5.5,3.4,10.4,8.9,11
			c0.4,0,0.7,0.1,1.1,0.1c5,0,9.4-3.8,9.9-8.9l3.7-34l20.2,27.6c3.3,4.5,9.5,5.4,14,2.2c4.5-3.3,5.4-9.5,2.2-14L93.3,102.5z"/>
		<path id="XMLID_1254_" class="st0" d="M482,76H312.9l-14.4-53.8c-2.1-7.7-7-14.2-14-18.2c-6.9-4-15-5.1-22.8-3L22.2,65.2
			c-7.7,2.1-14.2,7-18.2,14C0,86.1-1,94.2,1,102l97.3,363.2c2.1,7.7,7,14.2,14,18.2c4.6,2.7,9.8,4,15,4c2.6,0,5.2-0.3,7.8-1
			l68.9-18.5V482c0,16.5,13.5,30,30,30h248c16.5,0,30-13.5,30-30V339c0-5.5-4.5-10-10-10s-10,4.5-10,10v143c0,5.5-4.5,10-10,10H234
			c-5.5,0-10-4.5-10-10V106c0-5.5,4.5-10,10-10h248c5.5,0,10,4.5,10,10v143c0,5.5,4.5,10,10,10s10-4.5,10-10V106
			C512,89.5,498.5,76,482,76z M204,284.1c-9.7,9.8-25.3,12-37.4,5c-14.8-8.5-19.9-27.5-11.3-42.3l32.6-56.4l16.2,9.4V284.1z
			 M204,106v70.6l-14.9-8.6c-4.8-2.8-10.9-1.1-13.7,3.7l-37.6,65.1c-6.8,11.8-8.6,25.5-5.1,38.7c3.5,13.2,12,24.1,23.8,31
			c8.1,4.7,16.9,6.9,25.6,6.9c7.5,0,15-1.7,21.8-5v138.9L129.9,467c-2.6,0.7-5.3,0.3-7.6-1c-2.3-1.3-4-3.5-4.7-6.1L20.4,96.8
			c-1.4-5.3,1.7-10.8,7.1-12.2L267,20.4c2.6-0.7,5.3-0.3,7.6,1c2.3,1.3,4,3.5,4.7,6.1l13,48.6H234C217.5,76,204,89.5,204,106
			L204,106z"/>
		<path id="XMLID_1258_" class="st0" d="M308.9,199.3c5.2-2,7.7-7.8,5.7-12.9l-21.7-56c-1.5-3.9-5.2-6.4-9.3-6.4s-7.8,2.5-9.3,6.4
			l-21.6,56c-2,5.2,0.6,10.9,5.7,12.9c1.2,0.5,2.4,0.7,3.6,0.7c4,0,7.8-2.4,9.3-6.4l12.3-31.9l12.3,31.9
			C298,198.8,303.8,201.3,308.9,199.3L308.9,199.3z"/>
		<path id="XMLID_1259_" class="st0" d="M423,457.6c1.5,3.9,5.2,6.4,9.3,6.4s7.8-2.5,9.3-6.4l21.6-56c2-5.2-0.6-10.9-5.7-12.9
			c-5.1-2-10.9,0.6-12.9,5.7l-12.3,31.9L420,394.4c-2-5.2-7.8-7.7-12.9-5.7c-5.2,2-7.7,7.8-5.7,12.9L423,457.6z"/>
		<path id="XMLID_1324_" class="st0" d="M350.9,370.1c2,2,4.5,2.9,7.1,2.9c2.6,0,5.1-1,7.1-2.9l53.1-53.1
			c19.9-19.9,19.9-52.2,0-72.1v0c-16.2-16.2-40.6-19.5-60.2-8.9c-19.6-10.6-44-7.3-60.2,8.9c-19.9,19.9-19.9,52.2,0,72.1
			L350.9,370.1z M311.9,259c6-6,14-9,22-9c6.4,0,12.8,1.9,18.2,5.9c3.5,2.6,8.3,2.6,11.8,0c12.2-8.9,29.5-7.6,40.2,3.1
			c12.1,12.1,12.1,31.7,0,43.8L358,348.9l-46.1-46.1C299.9,290.7,299.9,271.1,311.9,259L311.9,259z"/>
		<path id="XMLID_1325_" class="st0" d="M502,284c-2.6,0-5.2,1.1-7.1,2.9s-2.9,4.4-2.9,7.1c0,2.6,1.1,5.2,2.9,7.1s4.4,2.9,7.1,2.9
			s5.2-1.1,7.1-2.9c1.9-1.9,2.9-4.4,2.9-7.1c0-2.6-1.1-5.2-2.9-7.1C507.2,285.1,504.6,284,502,284z"/>
	</g>
</g>
</svg>
